<svg xmlns="http://www.w3.org/2000/svg" xmlns:xlink="http://www.w3.org/1999/xlink" width="40" zoomAndPan="magnify" viewBox="0 0 30 30.000001" height="40" preserveAspectRatio="xMidYMid meet" version="1.0"><defs><clipPath id="0d19e652d6"><path d="M 9 0.761719 L 28.828125 0.761719 L 28.828125 20 L 9 20 Z M 9 0.761719 " clip-rule="nonzero"/></clipPath><clipPath id="6d18bbb48e"><path d="M 1.246094 4 L 25 4 L 25 28.34375 L 1.246094 28.34375 Z M 1.246094 4 " clip-rule="nonzero"/></clipPath></defs><g clip-path="url(#0d19e652d6)"><path fill="#000000" d="M 22.542969 1.277344 C 23.054688 0.765625 23.882812 0.765625 24.390625 1.277344 L 28.3125 5.195312 C 28.824219 5.707031 28.824219 6.535156 28.3125 7.046875 L 16.546875 18.808594 C 16.347656 19.011719 16.089844 19.140625 15.808594 19.179688 L 11.234375 19.832031 C 10.828125 19.890625 10.417969 19.753906 10.125 19.464844 C 9.835938 19.171875 9.699219 18.761719 9.753906 18.355469 L 10.410156 13.78125 C 10.449219 13.5 10.578125 13.238281 10.777344 13.039062 Z M 12.933594 14.582031 L 12.589844 17 L 15.007812 16.652344 L 25.539062 6.121094 L 23.46875 4.046875 Z M 12.933594 14.582031 " fill-opacity="1" fill-rule="evenodd"/></g><g clip-path="url(#6d18bbb48e)"><path fill="#000000" d="M 5.820312 7.429688 C 4.738281 7.429688 3.859375 8.304688 3.859375 9.390625 L 3.859375 23.769531 C 3.859375 24.851562 4.738281 25.726562 5.820312 25.726562 L 20.199219 25.726562 C 21.28125 25.726562 22.160156 24.851562 22.160156 23.769531 L 22.160156 13.964844 L 24.773438 13.964844 L 24.773438 23.769531 C 24.773438 26.292969 22.726562 28.34375 20.199219 28.34375 L 5.820312 28.34375 C 3.292969 28.34375 1.246094 26.292969 1.246094 23.769531 L 1.246094 9.390625 C 1.246094 6.863281 3.292969 4.8125 5.820312 4.8125 L 15.625 4.8125 L 15.625 7.429688 Z M 5.820312 7.429688 " fill-opacity="1" fill-rule="evenodd"/></g></svg>