<svg xmlns="http://www.w3.org/2000/svg" xmlns:xlink="http://www.w3.org/1999/xlink" width="40" zoomAndPan="magnify" viewBox="0 0 30 30.000001" height="40" preserveAspectRatio="xMidYMid meet" version="1.0"><defs><clipPath id="e83e6f628d"><path d="M 1.210938 0.726562 L 28.789062 0.726562 L 28.789062 28.304688 L 1.210938 28.304688 Z M 1.210938 0.726562 " clip-rule="nonzero"/></clipPath></defs><g clip-path="url(#e83e6f628d)"><path fill="#000000" d="M 15 0.726562 C 7.382812 0.726562 1.210938 6.902344 1.210938 14.515625 C 1.210938 22.132812 7.382812 28.304688 15 28.304688 C 22.617188 28.304688 28.789062 22.132812 28.789062 14.515625 C 28.789062 6.902344 22.617188 0.726562 15 0.726562 Z M 22.28125 20.847656 L 21.179688 21.953125 C 20.980469 22.148438 20.402344 22.273438 20.386719 22.273438 C 16.890625 22.300781 13.527344 20.929688 11.058594 18.457031 C 8.578125 15.980469 7.207031 12.605469 7.242188 9.097656 C 7.242188 9.097656 7.371094 8.535156 7.566406 8.339844 L 8.671875 7.238281 C 9.074219 6.832031 9.851562 6.648438 10.394531 6.828125 L 10.625 6.90625 C 11.167969 7.089844 11.738281 7.6875 11.886719 8.242188 L 12.441406 10.277344 C 12.59375 10.832031 12.390625 11.621094 11.988281 12.023438 L 11.25 12.761719 C 11.972656 15.441406 14.074219 17.542969 16.753906 18.269531 L 17.492188 17.53125 C 17.898438 17.128906 18.6875 16.925781 19.238281 17.074219 L 21.277344 17.632812 C 21.828125 17.785156 22.429688 18.347656 22.609375 18.890625 L 22.6875 19.125 C 22.867188 19.667969 22.6875 20.445312 22.28125 20.847656 Z M 22.28125 20.847656 " fill-opacity="1" fill-rule="nonzero"/></g></svg>