<svg xmlns="http://www.w3.org/2000/svg" xmlns:xlink="http://www.w3.org/1999/xlink" width="40" zoomAndPan="magnify" viewBox="0 0 30 30.000001" height="40" preserveAspectRatio="xMidYMid meet" version="1.0"><defs><clipPath id="bc7ef60a55"><path d="M 5 5 L 25 5 L 25 27.976562 L 5 27.976562 Z M 5 5 " clip-rule="nonzero"/></clipPath><clipPath id="f66d5d1e52"><path d="M 0.84375 1.121094 L 29.152344 1.121094 L 29.152344 16 L 0.84375 16 Z M 0.84375 1.121094 " clip-rule="nonzero"/></clipPath></defs><g clip-path="url(#bc7ef60a55)"><path fill="#000000" d="M 24.933594 14.773438 Z M 24.933594 14.773438 L 15 5.953125 L 5.058594 14.777344 L 5.058594 27.382812 C 5.058594 27.710938 5.324219 27.972656 5.648438 27.972656 L 11.859375 27.972656 L 11.859375 22.441406 C 11.859375 22.117188 12.121094 21.855469 12.445312 21.855469 L 17.550781 21.855469 C 17.875 21.855469 18.136719 22.117188 18.136719 22.441406 L 18.136719 27.972656 L 24.347656 27.972656 C 24.675781 27.972656 24.933594 27.710938 24.933594 27.382812 L 24.933594 14.769531 Z M 5.058594 14.777344 Z M 5.058594 14.777344 " fill-opacity="1" fill-rule="nonzero"/></g><g clip-path="url(#f66d5d1e52)"><path fill="#000000" d="M 14.941406 1.125 L 0.84375 13.640625 L 2.328125 15.320312 L 15 4.070312 L 27.667969 15.320312 L 29.152344 13.640625 L 15.054688 1.125 L 15 1.1875 Z M 14.941406 1.125 " fill-opacity="1" fill-rule="nonzero"/></g><path fill="#000000" d="M 5.058594 2.925781 L 8.632812 2.925781 L 8.601562 5.046875 L 5.058594 8.257812 Z M 5.058594 2.925781 " fill-opacity="1" fill-rule="nonzero"/></svg>