<svg xmlns="http://www.w3.org/2000/svg" xmlns:xlink="http://www.w3.org/1999/xlink" width="40" zoomAndPan="magnify" viewBox="0 0 30 30.000001" height="40" preserveAspectRatio="xMidYMid meet" version="1.0"><defs><clipPath id="4dc83663f4"><path d="M 1.066406 0.582031 L 28.625 0.582031 L 28.625 28.160156 L 1.066406 28.160156 Z M 1.066406 0.582031 " clip-rule="nonzero"/></clipPath></defs><g clip-path="url(#4dc83663f4)"><path fill="#100f0d" d="M 14.757812 9.125 C 17.625 9.074219 19.992188 11.355469 20.046875 14.222656 C 20.046875 14.273438 20.046875 14.320312 20.046875 14.375 C 20.078125 17.242188 17.78125 19.589844 14.914062 19.625 C 12.046875 19.65625 9.695312 17.359375 9.664062 14.492188 C 9.664062 14.453125 9.664062 14.414062 9.664062 14.375 C 9.632812 11.519531 11.90625 9.175781 14.757812 9.125 Z M 15.316406 0.59375 C 14.542969 0.566406 13.765625 0.605469 13 0.707031 C 12.726562 0.746094 12.503906 0.9375 12.421875 1.195312 L 11.660156 3.683594 C 11.59375 3.894531 11.433594 4.0625 11.222656 4.136719 C 10.863281 4.265625 10.511719 4.410156 10.164062 4.574219 C 9.964844 4.671875 9.730469 4.667969 9.535156 4.5625 L 7.238281 3.34375 C 6.996094 3.214844 6.699219 3.238281 6.484375 3.40625 C 5.5 4.152344 4.625 5.03125 3.875 6.015625 C 3.707031 6.230469 3.683594 6.523438 3.8125 6.765625 L 5.035156 9.066406 C 5.140625 9.257812 5.148438 9.492188 5.058594 9.695312 C 4.890625 10.039062 4.746094 10.390625 4.617188 10.753906 C 4.542969 10.960938 4.375 11.125 4.160156 11.1875 L 1.675781 11.953125 C 1.414062 12.03125 1.222656 12.257812 1.1875 12.527344 C 1.023438 13.753906 1.023438 14.992188 1.1875 16.21875 C 1.222656 16.488281 1.414062 16.714844 1.675781 16.792969 L 4.160156 17.558594 C 4.375 17.621094 4.542969 17.785156 4.617188 17.996094 C 4.746094 18.355469 4.890625 18.707031 5.058594 19.050781 C 5.148438 19.253906 5.140625 19.488281 5.035156 19.683594 L 3.8125 21.980469 C 3.683594 22.222656 3.707031 22.515625 3.875 22.734375 C 4.625 23.714844 5.5 24.589844 6.484375 25.339844 C 6.699219 25.507812 6.996094 25.527344 7.238281 25.402344 L 9.535156 24.183594 C 9.730469 24.078125 9.964844 24.074219 10.164062 24.171875 C 10.511719 24.335938 10.863281 24.480469 11.222656 24.609375 C 11.433594 24.683594 11.59375 24.851562 11.660156 25.0625 L 12.421875 27.550781 C 12.503906 27.8125 12.726562 28.003906 13 28.035156 C 14.222656 28.203125 15.464844 28.203125 16.6875 28.035156 C 16.957031 28.003906 17.183594 27.8125 17.265625 27.550781 L 18.027344 25.0625 C 18.09375 24.851562 18.257812 24.683594 18.464844 24.609375 C 18.824219 24.480469 19.179688 24.335938 19.523438 24.171875 C 19.722656 24.074219 19.957031 24.078125 20.152344 24.183594 L 22.449219 25.402344 C 22.691406 25.527344 22.988281 25.507812 23.203125 25.339844 C 24.1875 24.589844 25.0625 23.714844 25.8125 22.734375 C 25.980469 22.515625 26.003906 22.222656 25.875 21.980469 L 24.65625 19.683594 C 24.546875 19.488281 24.542969 19.253906 24.632812 19.050781 C 24.796875 18.707031 24.941406 18.355469 25.070312 17.996094 C 25.144531 17.785156 25.3125 17.621094 25.527344 17.558594 L 28.011719 16.792969 C 28.273438 16.710938 28.464844 16.488281 28.5 16.21875 C 28.664062 14.992188 28.664062 13.753906 28.5 12.527344 C 28.464844 12.257812 28.273438 12.03125 28.011719 11.953125 L 25.527344 11.1875 C 25.3125 11.125 25.144531 10.960938 25.070312 10.753906 C 24.941406 10.390625 24.796875 10.039062 24.632812 9.695312 C 24.542969 9.492188 24.546875 9.257812 24.65625 9.066406 L 25.875 6.765625 C 26.003906 6.523438 25.980469 6.230469 25.8125 6.015625 C 25.0625 5.03125 24.1875 4.152344 23.203125 3.40625 C 22.988281 3.238281 22.691406 3.214844 22.449219 3.34375 L 20.152344 4.5625 C 19.957031 4.667969 19.722656 4.671875 19.523438 4.578125 C 19.179688 4.414062 18.824219 4.265625 18.464844 4.136719 C 18.257812 4.066406 18.09375 3.894531 18.027344 3.683594 L 17.265625 1.199219 C 17.183594 0.9375 16.957031 0.746094 16.6875 0.707031 C 16.234375 0.648438 15.777344 0.609375 15.316406 0.59375 " fill-opacity="1" fill-rule="nonzero"/></g></svg>