<svg xmlns="http://www.w3.org/2000/svg" xmlns:xlink="http://www.w3.org/1999/xlink" width="40" zoomAndPan="magnify" viewBox="0 0 30 30.000001" height="40" preserveAspectRatio="xMidYMid meet" version="1.0"><defs><clipPath id="675122dfc8"><path d="M 1.101562 0.617188 L 28.679688 0.617188 L 28.679688 28.199219 L 1.101562 28.199219 Z M 1.101562 0.617188 " clip-rule="nonzero"/></clipPath></defs><g clip-path="url(#675122dfc8)"><path fill="#000000" d="M 14.890625 0.617188 C 13.984375 0.617188 13.089844 0.707031 12.199219 0.882812 C 11.3125 1.058594 10.449219 1.320312 9.613281 1.667969 C 8.777344 2.011719 7.984375 2.4375 7.230469 2.941406 C 6.476562 3.445312 5.78125 4.015625 5.140625 4.65625 C 4.5 5.296875 3.929688 5.992188 3.425781 6.746094 C 2.921875 7.5 2.496094 8.292969 2.152344 9.128906 C 1.804688 9.964844 1.542969 10.828125 1.367188 11.71875 C 1.1875 12.605469 1.101562 13.5 1.101562 14.40625 C 1.101562 15.3125 1.1875 16.210938 1.367188 17.097656 C 1.542969 17.984375 1.804688 18.847656 2.152344 19.683594 C 2.496094 20.519531 2.921875 21.316406 3.425781 22.070312 C 3.929688 22.820312 4.5 23.519531 5.140625 24.160156 C 5.78125 24.796875 6.476562 25.371094 7.230469 25.875 C 7.984375 26.375 8.777344 26.800781 9.613281 27.148438 C 10.449219 27.496094 11.3125 27.757812 12.199219 27.933594 C 13.089844 28.109375 13.984375 28.199219 14.890625 28.199219 C 15.796875 28.199219 16.695312 28.109375 17.582031 27.933594 C 18.46875 27.757812 19.332031 27.496094 20.167969 27.148438 C 21.003906 26.800781 21.800781 26.375 22.550781 25.875 C 23.304688 25.371094 24.003906 24.796875 24.640625 24.160156 C 25.28125 23.519531 25.855469 22.820312 26.355469 22.070312 C 26.859375 21.316406 27.285156 20.519531 27.632812 19.683594 C 27.976562 18.847656 28.238281 17.984375 28.417969 17.097656 C 28.59375 16.210938 28.679688 15.3125 28.679688 14.40625 C 28.679688 13.5 28.59375 12.605469 28.417969 11.71875 C 28.238281 10.828125 27.976562 9.964844 27.632812 9.128906 C 27.285156 8.292969 26.859375 7.5 26.355469 6.746094 C 25.855469 5.992188 25.28125 5.296875 24.640625 4.65625 C 24 4.015625 23.304688 3.445312 22.550781 2.941406 C 21.800781 2.4375 21.003906 2.015625 20.167969 1.667969 C 19.332031 1.320312 18.46875 1.058594 17.582031 0.882812 C 16.691406 0.707031 15.796875 0.617188 14.890625 0.617188 Z M 14.890625 5.789062 C 15.21875 5.789062 15.542969 5.824219 15.859375 5.902344 C 16.179688 5.976562 16.488281 6.085938 16.78125 6.230469 C 17.074219 6.378906 17.34375 6.554688 17.597656 6.765625 C 17.847656 6.976562 18.074219 7.210938 18.269531 7.472656 C 18.46875 7.734375 18.632812 8.015625 18.765625 8.316406 C 18.898438 8.613281 18.992188 8.925781 19.050781 9.25 C 19.113281 9.570312 19.132812 9.894531 19.117188 10.222656 C 19.101562 10.550781 19.050781 10.871094 18.957031 11.1875 C 18.867188 11.5 18.742188 11.800781 18.582031 12.085938 C 18.421875 12.375 18.230469 12.636719 18.007812 12.878906 C 17.789062 13.121094 17.542969 13.332031 17.269531 13.515625 C 17 13.699219 16.710938 13.851562 16.40625 13.96875 C 16.097656 14.085938 15.78125 14.167969 15.457031 14.210938 C 15.132812 14.253906 14.808594 14.257812 14.480469 14.226562 C 14.15625 14.195312 13.835938 14.128906 13.527344 14.019531 C 13.21875 13.914062 12.921875 13.777344 12.644531 13.601562 C 9.09375 11.351562 10.632812 5.832031 14.890625 5.789062 Z M 19.851562 23.027344 L 9.929688 23.027344 C 9.515625 23.027344 9.117188 22.945312 8.734375 22.785156 C 8.351562 22.628906 8.015625 22.402344 7.722656 22.109375 C 7.429688 21.816406 7.203125 21.476562 7.042969 21.09375 C 6.886719 20.710938 6.808594 20.3125 6.804688 19.898438 C 6.804688 17.246094 8.757812 14.957031 11.558594 13.929688 C 12.027344 14.324219 12.542969 14.625 13.117188 14.835938 C 13.691406 15.042969 14.28125 15.148438 14.890625 15.148438 C 15.5 15.148438 16.09375 15.042969 16.664062 14.835938 C 17.238281 14.625 17.757812 14.324219 18.222656 13.929688 C 21.023438 14.957031 22.976562 17.246094 22.976562 19.898438 C 22.976562 20.3125 22.894531 20.710938 22.738281 21.09375 C 22.578125 21.476562 22.351562 21.816406 22.058594 22.109375 C 21.765625 22.402344 21.429688 22.628906 21.046875 22.785156 C 20.664062 22.945312 20.265625 23.027344 19.851562 23.027344 Z M 19.851562 23.027344 " fill-opacity="1" fill-rule="nonzero"/></g></svg>